HIERARCHY
ROOT Hips
{
 OFFSET 0.000000 0.000000 0.000000
 CHANNELS 6 Xposition Yposition Zposition Yrotation Xrotation Zrotation
 JOINT Chest
 {
  OFFSET 0.000000 9.581000 -0.001100
  CHANNELS 3 Yrotation Xrotation Zrotation
  JOINT Chest2
  {
   OFFSET 0.000000 9.561100 0.002200
   CHANNELS 3 Yrotation Xrotation Zrotation
   JOINT Chest3
   {
    OFFSET 0.000000 9.521100 0.000000
    CHANNELS 3 Yrotation Xrotation Zrotation
    JOINT Chest4
    {
     OFFSET 0.000000 9.511400 0.000000
     CHANNELS 3 Yrotation Xrotation Zrotation
     JOINT Neck
     {
      OFFSET 0.000000 14.375100 0.000000
      CHANNELS 3 Yrotation Xrotation Zrotation
      JOINT Head
      {
       OFFSET 0.000000 8.901200 0.004600
       CHANNELS 3 Yrotation Xrotation Zrotation
       End Site
       {
        OFFSET 0.000000 16.962200 0.002400
       }
      }
     }
     JOINT RightCollar
     {
      OFFSET -2.920100 9.518800 0.000000
      CHANNELS 3 Yrotation Xrotation Zrotation
      JOINT RightShoulder
      {
       OFFSET -13.664500 0.000000 0.000000
       CHANNELS 3 Yrotation Xrotation Zrotation
       JOINT RightElbow
       {
        OFFSET 0.000000 -29.999200 0.000000
        CHANNELS 3 Yrotation Xrotation Zrotation
        JOINT RightWrist
        {
         OFFSET 0.000000 -24.253600 0.000000
         CHANNELS 3 Yrotation Xrotation Zrotation
         End Site
         {
          OFFSET 0.000000 -17.918900 0.000000
         }
        }
       }
      }
     }
     JOINT LeftCollar
     {
      OFFSET 2.920100 9.518800 0.000000
      CHANNELS 3 Yrotation Xrotation Zrotation
      JOINT LeftShoulder
      {
       OFFSET 13.664500 0.000000 0.000000
       CHANNELS 3 Yrotation Xrotation Zrotation
       JOINT LeftElbow
       {
        OFFSET 0.000000 -29.999200 0.000000
        CHANNELS 3 Yrotation Xrotation Zrotation
        JOINT LeftWrist
        {
         OFFSET 0.000000 -24.253600 0.000000
         CHANNELS 3 Yrotation Xrotation Zrotation
         End Site
         {
          OFFSET 0.000000 -17.918900 0.000000
         }
        }
       }
      }
     }
    }
   }
  }
 }
 JOINT RightHip
 {
  OFFSET -7.797300 0.005300 0.000500
  CHANNELS 3 Yrotation Xrotation Zrotation
  JOINT RightKnee
  {
   OFFSET 0.000000 -40.663400 -0.000500
   CHANNELS 3 Yrotation Xrotation Zrotation
   JOINT RightAnkle
   {
    OFFSET 0.000000 -39.523700 -0.000900
    CHANNELS 3 Yrotation Xrotation Zrotation
    JOINT RightToe
    {
     OFFSET 0.000000 -6.418000 14.485300
     CHANNELS 3 Yrotation Xrotation Zrotation
     End Site
     {
      OFFSET 0.000000 -1.465200 6.326400
     }
    }
   }
  }
 }
 JOINT LeftHip
 {
  OFFSET 7.797300 0.005300 0.000500
  CHANNELS 3 Yrotation Xrotation Zrotation
  JOINT LeftKnee
  {
   OFFSET 0.000000 -40.663400 -0.000500
   CHANNELS 3 Yrotation Xrotation Zrotation
   JOINT LeftAnkle
   {
    OFFSET 0.000000 -39.523700 -0.000900
    CHANNELS 3 Yrotation Xrotation Zrotation
    JOINT LeftToe
    {
     OFFSET 0.000000 -6.418000 14.485300
     CHANNELS 3 Yrotation Xrotation Zrotation
     End Site
     {
      OFFSET 0.000000 -1.465200 6.326400
     }
    }
   }
  }
 }
}
MOTION
Frames: 5
Frame Time: 0.008333
0.000000 86.422400 0.000000 0.000000 -5.767877 0.000000 0.000000 11.653817 0.000000 0.000000 -5.885947 0.000000 0.000000 -0.000000 0.000000 0.000000 -0.000000 0.000000 0.000000 12.528835 0.000000 0.000000 0.711642 0.000000 0.000000 -0.000000 0.000000 0.000000 0.000000 -90.000000 0.000000 -2.309062 0.000000 0.000000 2.309062 0.000000 0.000000 -0.000000 0.000000 0.000000 -0.000000 90.000000 0.000000 -2.309062 0.000000 0.000000 2.309062 0.000000 0.000000 8.520406 0.000000 0.000000 1.905762 0.000000 -0.000000 -4.658285 0.000000 0.000000 -0.000000 0.000000 0.000000 8.520406 0.000000 0.000000 1.905762 0.000000 -0.000000 -4.658285 0.000000 0.000000 -0.000000 0.000000
-9.916987 126.691277 5.817818 164.926218 -35.417049 -1.457093 1.679175 21.123499 0.470869 0.205915 2.780578 0.025563 0.330254 4.545798 0.044917 1.444312 17.971159 0.375554 8.588298 16.172479 -0.469030 9.518496 -8.399079 -2.524975 -3.102432 2.226268 2.635648 -6.347374 -5.307264 -7.595716 -138.729976 -57.470057 166.095421 -3.506749 -12.034415 -37.943333 -6.611164 1.858765 0.887654 0.441013 -13.703911 7.574981 164.972326 -72.656406 -176.726014 -19.450920 -15.497790 34.123018 6.324354 -51.421166 3.543330 -98.082322 83.991110 -93.716383 10.560872 -17.547693 2.751932 -0.021131 0.042961 -0.009368 -4.205407 -40.209044 -0.958790 50.663041 83.247069 43.866766 3.153781 -9.354608 3.891794 0.004551 0.012706 0.002017
-9.914948 126.692983 5.820432 164.934966 -35.453736 -1.473956 1.692718 21.131401 0.494072 0.217055 2.767254 0.028886 0.343957 4.531084 0.050954 1.429387 18.009881 0.376069 8.534276 16.242822 -0.477340 9.456976 -8.325545 -2.520176 -3.096547 2.249354 2.634555 -6.278220 -5.325452 -7.624076 -138.645628 -57.475934 165.974762 -3.512001 -12.036191 -37.979146 -6.607783 1.882120 0.864703 0.392151 -13.718106 7.585542 164.911068 -72.675428 -176.695502 -19.447343 -15.489428 34.114027 6.225356 -51.359135 3.655850 -96.588249 84.044496 -92.301024 10.616888 -17.490846 2.773157 -0.001091 0.015252 -0.000484 -4.244394 -40.179085 -0.938281 50.637993 83.227856 43.817580 3.160526 -9.326644 3.900709 -0.000841 0.004049 -0.000372
-9.915801 126.693575 5.824231 164.953789 -35.481718 -1.479416 1.681803 21.150236 0.492378 0.238853 2.746238 0.032448 0.330152 4.548628 0.050217 1.452336 18.008823 0.382388 8.476614 16.313729 -0.483298 9.390823 -8.251618 -2.511921 -3.072170 2.266950 2.645291 -6.278828 -5.343782 -7.642169 -138.577708 -57.475993 165.918714 -3.510970 -12.048679 -38.017613 -6.633136 1.897170 0.861010 0.374122 -13.727015 7.583254 164.848869 -72.683465 -176.670695 -19.418528 -15.519805 34.075501 6.133356 -51.294056 3.747470 -94.964516 84.078463 -90.767987 10.689818 -17.490034 2.786024 0.009092 0.007716 0.004029 -4.272475 -40.161301 -0.941237 50.335216 83.206659 43.488666 3.185574 -9.274759 3.918667 -0.007589 -0.001485 -0.003362
-9.915657 126.695089 5.827183 164.961398 -35.520085 -1.480076 1.705172 21.154304 0.504359 0.241064 2.753131 0.033542 0.314919 4.564367 0.049178 1.468710 18.011246 0.386129 8.426868 16.385366 -0.490130 9.320121 -8.174308 -2.501068 -3.065422 2.274633 2.654503 -6.251908 -5.358214 -7.658814 -138.546833 -57.470459 165.893461 -3.504160 -12.068610 -38.054891 -6.618033 1.900022 0.845720 0.323155 -13.734789 7.598427 164.815751 -72.694809 -176.660395 -19.413641 -15.549820 34.057069 6.054333 -51.208043 3.843028 -93.303473 84.086900 -89.200333 10.740467 -17.529303 2.791456 0.011131 -0.000950 0.004932 -4.283318 -40.131910 -0.946377 50.269596 83.200586 43.411380 3.189187 -9.253370 3.923706 -0.007240 -0.000647 -0.003208
